name rise44.8762peak52.3436fall86.788.mot
datacolumns 19
datarows 23
range 21.87991900000000 21.91657900000000
endheader
time	ground_force1_vx	ground_force1_vy	ground_force1_vz	ground_force1_px	ground_force1_py	ground_force1_pz	ground_force2_vx	ground_force2_vy	ground_force2_vz	ground_force2_px	ground_force2_py	ground_force2_pz	ground_torque1_x	ground_torque1_y	ground_torque1_z	ground_torque2_x	ground_torque2_y	ground_torque2_z	
21.87991900000000	-37.66169000000000	813.77963299999999	65.35913200000000	0.10117100000000	0.00000000000000	0.13162300000000	-8.47135800000000	53.53908100000000	9.26249200000000	0.34621700000000	0.00000000000000	-0.06832500000000	0.00000000000000	22.44831400000000	0.00000000000000	0.00000000000000	5.76528800000000	0.00000000000000	
21.88158100000000	-38.13965300000000	812.65814899999998	65.43259600000000	0.10046900000000	0.00000000000000	0.13155400000000	-9.04910300000000	60.03415300000000	10.12629000000000	0.34967400000000	0.00000000000000	-0.06845700000000	0.00000000000000	22.42087700000000	0.00000000000000	0.00000000000000	6.36940300000000	0.00000000000000	
21.88325200000000	-38.63025600000000	811.41429800000003	65.48270300000000	0.09978000000000	0.00000000000000	0.13148100000000	-9.49563300000000	66.35752800000000	10.89769900000000	0.35288200000000	0.00000000000000	-0.06858500000000	0.00000000000000	22.39366200000000	0.00000000000000	0.00000000000000	6.92601000000000	0.00000000000000	
21.88491800000000	-39.13381900000000	810.04536299999995	65.50864000000000	0.09910300000000	0.00000000000000	0.13140300000000	-9.80540200000000	72.46627700000001	11.56900600000000	0.35586500000000	0.00000000000000	-0.06871300000000	0.00000000000000	22.36676800000000	0.00000000000000	0.00000000000000	7.42897300000000	0.00000000000000	
21.88658100000000	-39.65061800000000	808.54864699999996	65.50962400000000	0.09843700000000	0.00000000000000	0.13132200000000	-9.97908500000000	78.34317299999999	12.13812100000000	0.35864400000000	0.00000000000000	-0.06884000000000	0.00000000000000	22.34028900000000	0.00000000000000	0.00000000000000	7.87562500000000	0.00000000000000	
21.88825200000000	-40.18088200000000	806.92148099999997	65.48490900000000	0.09778300000000	0.00000000000000	0.13123600000000	-10.02263200000000	83.99406600000000	12.60783900000000	0.36123800000000	0.00000000000000	-0.06896900000000	0.00000000000000	22.31430600000000	0.00000000000000	0.00000000000000	8.26639700000000	0.00000000000000	
21.88991400000000	-40.72479000000000	805.16122299999995	65.43378700000000	0.09714000000000	0.00000000000000	0.13114600000000	-9.94604300000000	89.44381000000000	12.98483000000000	0.36366100000000	0.00000000000000	-0.06909900000000	0.00000000000000	22.28888900000000	0.00000000000000	0.00000000000000	8.60425700000000	0.00000000000000	
21.89158100000000	-41.28246900000000	803.26526500000000	65.35559000000001	0.09650700000000	0.00000000000000	0.13105100000000	-9.76202700000000	94.73135000000001	13.27848300000000	0.36592700000000	0.00000000000000	-0.06923100000000	0.00000000000000	22.26409700000000	0.00000000000000	0.00000000000000	8.89403500000000	0.00000000000000	
21.89325200000000	-41.85399100000000	801.23103400000002	65.24969299999999	0.09588300000000	0.00000000000000	0.13095200000000	-9.48467700000000	99.90450300000001	13.49974000000000	0.36804600000000	0.00000000000000	-0.06936600000000	0.00000000000000	22.23998000000000	0.00000000000000	0.00000000000000	9.14170900000000	0.00000000000000	
21.89491900000000	-42.43936700000000	799.05599500000005	65.11551600000000	0.09526700000000	0.00000000000000	0.13085000000000	-9.12825800000000	105.01491900000001	13.65998900000000	0.37002900000000	0.00000000000000	-0.06950400000000	0.00000000000000	22.21657100000000	0.00000000000000	0.00000000000000	9.35372400000000	0.00000000000000	
21.89658400000000	-43.03854700000000	796.73765700000001	64.95252900000000	0.09466000000000	0.00000000000000	0.13074300000000	-8.70618900000000	110.11359800000000	13.77012800000000	0.37188300000000	0.00000000000000	-0.06964600000000	0.00000000000000	22.19389200000000	0.00000000000000	0.00000000000000	9.53638400000000	0.00000000000000	
21.89825000000000	-43.65141500000000	794.27357800000004	64.76025100000000	0.09405900000000	0.00000000000000	0.13063100000000	-8.23027400000000	115.24721099999999	13.83981900000000	0.37361700000000	0.00000000000000	-0.06979100000000	0.00000000000000	22.17195400000000	0.00000000000000	0.00000000000000	9.69536600000000	0.00000000000000	
21.89992000000000	-44.27778600000000	791.66136500000005	64.53825300000000	0.09346500000000	0.00000000000000	0.13051600000000	-7.71018100000000	120.45537800000000	13.87696700000000	0.37523700000000	0.00000000000000	-0.06994100000000	0.00000000000000	22.15075000000000	0.00000000000000	0.00000000000000	9.83536400000000	0.00000000000000	
21.90159400000000	-44.91740600000000	788.89868000000001	64.28616100000001	0.09287600000000	0.00000000000000	0.13039700000000	-7.15318000000000	125.76893000000000	13.88742800000000	0.37674800000000	0.00000000000000	-0.07009400000000	0.00000000000000	22.13026300000000	0.00000000000000	0.00000000000000	9.95987100000000	0.00000000000000	
21.90324900000000	-45.56994600000000	785.98324700000001	64.00365900000000	0.09229200000000	0.00000000000000	0.13027300000000	-6.56411000000000	131.20912300000001	13.87491500000000	0.37815700000000	0.00000000000000	-0.07025300000000	0.00000000000000	22.11045800000000	0.00000000000000	0.00000000000000	10.07109100000000	0.00000000000000	
21.90491500000000	-46.23500000000000	782.91285300000004	63.69048400000000	0.09171000000000	0.00000000000000	0.13014600000000	-5.94552900000000	136.78768700000001	13.84109000000000	0.37946700000000	0.00000000000000	-0.07041500000000	0.00000000000000	22.09128800000000	0.00000000000000	0.00000000000000	10.16997300000000	0.00000000000000	
21.90658500000000	-46.91208500000000	779.68535499999996	63.34643800000000	0.09113200000000	0.00000000000000	0.13001500000000	-5.29801700000000	142.50754499999999	13.78578600000000	0.38068300000000	0.00000000000000	-0.07058200000000	0.00000000000000	22.07269100000000	0.00000000000000	0.00000000000000	10.25632700000000	0.00000000000000	
21.90824700000000	-47.60063600000000	776.29868399999998	62.97138100000000	0.09055400000000	0.00000000000000	0.12988000000000	-4.62056300000000	148.36404200000001	13.70733300000000	0.38180800000000	0.00000000000000	-0.07075400000000	0.00000000000000	22.05458900000000	0.00000000000000	0.00000000000000	10.32901100000000	0.00000000000000	
21.90991800000000	-48.30000600000000	772.75084800000002	62.56523400000000	0.08997700000000	0.00000000000000	0.12974200000000	-3.91101000000000	154.34648200000001	13.60293300000000	0.38284600000000	0.00000000000000	-0.07093000000000	0.00000000000000	22.03688900000000	0.00000000000000	0.00000000000000	10.38616200000000	0.00000000000000	
21.91158400000000	-49.00946500000000	769.03994000000000	62.12798300000000	0.08940000000000	0.00000000000000	0.12960000000000	-3.16650000000000	160.43981299999999	13.46905300000000	0.38380100000000	0.00000000000000	-0.07111100000000	0.00000000000000	22.01948500000000	0.00000000000000	0.00000000000000	10.42543300000000	0.00000000000000	
21.91324400000000	-49.72819600000000	765.16414399999996	61.65967600000000	0.08882000000000	0.00000000000000	0.12945500000000	-2.38389700000000	166.62630500000000	13.30180500000000	0.38467300000000	0.00000000000000	-0.07129700000000	0.00000000000000	22.00225300000000	0.00000000000000	0.00000000000000	10.44423800000000	0.00000000000000	
21.91491700000000	-50.45529600000000	761.12173399999995	61.16042700000000	0.08823800000000	0.00000000000000	0.12930600000000	-1.56014600000000	172.88709100000000	13.09728500000000	0.38546700000000	0.00000000000000	-0.07148600000000	0.00000000000000	21.98505800000000	0.00000000000000	0.00000000000000	10.43996100000000	0.00000000000000	
21.91657900000000	-51.18977500000000	756.91108599999995	60.63041300000000	0.08765200000000	0.00000000000000	0.12915400000000	-0.69257800000000	179.20350300000001	12.85185200000000	0.38618500000000	0.00000000000000	-0.07168100000000	0.00000000000000	21.96774600000000	0.00000000000000	0.00000000000000	10.41014700000000	0.00000000000000	
